<svg xmlns="//www.w3.org/2000/svg" class="buy-try-buttons__item-icon is-appstore" width="19" height="16" viewBox="0 0 42 36">
              <defs>
                <style>
                  .cls-1 {
                    fill-rule: evenodd;
                  }
                </style>
              </defs>
              <path id="Mac_app_store" data-name="Mac app store" class="cls-1" d="M38.581,28.014H35.051l2.4,4.149a2.51,2.51,0,1,1-4.348,2.51l-8.9-15.423c-0.163-.318-0.312-0.6-0.441-0.82a6.847,6.847,0,0,1,1.028-8.2l7.371,12.766h6.429A2.51,2.51,0,1,1,38.581,28.014Zm-22.915-5.02h7.4a3.651,3.651,0,0,1,3.385,5.02H3.44a2.51,2.51,0,1,1,0-5.02H9.869L18.112,8.716,15.528,4.24a2.51,2.51,0,0,1,4.348-2.51L21.011,3.7,22.146,1.73a2.51,2.51,0,1,1,4.348,2.51Zm-9.28,6.033a6.883,6.883,0,0,1,1.162-.1,6.812,6.812,0,0,1,3.963,1.265L8.923,34.673a2.51,2.51,0,1,1-4.348-2.51Z"></path>
            </svg>